# xmcd CD database file
#
# Track frame offsets:
#	150
#	17946
#	31130
#	52598
#	73597
#	90417
#	101471
#	120770
#	139435
#	159370
#	172304
#
# Disc length: 2611 seconds
#
# Revision: 0
# Processed by: cddbd v1.5.2PL0 Copyright (c) Steve Scherf et al.
# Submitted via: CDex 1.50Beta6
#
DISCID=830a310b
DTITLE=John Steed - Almost Home
DYEAR=1900
DGENRE=Country
TTITLE0=A Touch of Faith
TTITLE1=Heart Condition
TTITLE2=Down On My Knees
TTITLE3=There Goes The Neighborhood
TTITLE4=Barstool - Church Pew
TTITLE5=Almost Home
TTITLE6=A Change of Heart
TTITLE7=Rumbling In The Rails
TTITLE8=A Sparkle in His Eys
TTITLE9=My Future Looks Bright
TTITLE10=Don't Ask Who
EXTD=
EXTT0=
EXTT1=
EXTT2=
EXTT3=
EXTT4=
EXTT5=
EXTT6=
EXTT7=
EXTT8=
EXTT9=
EXTT10=
PLAYORDER=
